<svg width="17" height="16" viewBox="0 0 17 16" fill="none" xmlns="http://www.w3.org/2000/svg">
<path d="M12.5176 4.2142C12.3863 5.98435 11.0444 7.4284 9.57121 7.4284C8.09804 7.4284 6.75376 5.98468 6.62486 4.2142C6.49094 2.37273 7.7967 1 9.57121 1C11.3457 1 12.6515 2.40621 12.5176 4.2142Z" stroke="#641CC0" stroke-width="1.5" stroke-linecap="round" stroke-linejoin="round"/>
<path d="M9.57122 9.57117C6.65835 9.57117 3.70196 11.1783 3.15488 14.2117C3.08791 14.5773 3.29583 14.9282 3.67886 14.9282H15.4639C15.8469 14.9282 16.0539 14.5773 15.9879 14.2117C15.4405 11.1783 12.4841 9.57117 9.57122 9.57117Z" stroke="#641CC0" stroke-width="1.5" stroke-miterlimit="10"/>
<path d="M4.7499 7.16059H1M2.87495 5.28564V9.03554V5.28564Z" stroke="#641CC0" stroke-width="1.5" stroke-linecap="round" stroke-linejoin="round"/>
</svg>
